:FULLY-SPECIFIED
:FORCE-ALL-JOINTS-BE-3DOF
:DEGREES
577
root 7.06751 16.2535 -3.48575 0 0 0
lfemur -19.0807 4.31384 -18.255
ltibia 50.259 -0 0
lfoot -34.2739 5.86085 0.119234
ltoes -1.2475 0 0
rfemur 0 0 0
rtibia 0 0 0
rfoot 12.1967 9.52677 0.00474291
rtoes -28.6029 0 0
lowerback 0 0 0
upperback 2.65583 -1.17729 3.38454
thorax 0 0 0
lowerneck 0 0 0
upperneck 10.6588 -18.6194 5.87424
head 4.9136 -8.9694 1.2703
lclavicle 0 0 0
lhumerus -37.2249 -18.695 93.4835
lradius 0 0 0
lwrist 22.8325 0 0
lhand 0 0 0
lfingers 0 0 0
lthumb 0 0 0
rclavicle 0 0 0
rhumerus 25.365 17.0401 -74.3436
rradius 0 0 0
rwrist -44.0467 0 0
rhand 0 0 0
rfingers 0 0 0
rthumb 0.270601 -50.4818 0.00606399
578
root 7.00498 16.2689 -3.47405 0 0 0
lfemur -18.815 4.48223 -18.334
ltibia 49.5585 -0 0
lfoot -33.9737 6.66095 0.119449
ltoes -0.843808 0 0
rfemur 0 0 0
rtibia 0 0 0
rfoot 12.1312 9.38097 0.00475149
rtoes -27.3778 0 0
lowerback 0 0 0
upperback 2.58797 -1.22653 3.26693
thorax 0 0 0
lowerneck 0 0 0
upperneck 10.8447 -18.5624 5.91222
head 4.98473 -8.92998 1.266
lclavicle 0 0 0
lhumerus -35.9875 -19.6362 92.5888
lradius 0 0 0
lwrist 23.0396 0 0
lhand 0 0 0
lfingers 0 0 0
lthumb 0 0 0
rclavicle 0 0 0
rhumerus 25.3915 16.9894 -74.1696
rradius 0 0 0
rwrist -44.0631 0 0
rhand 0 0 0
rfingers 0 0 0
rthumb 0.345548 -50.319 0.00607496
579
root 6.94232 16.2821 -3.46251 0 0 0
lfemur -18.5521 4.64932 -18.4116
ltibia 48.865 -0 0
lfoot -33.6765 7.4532 0.115532
ltoes -0.444075 0 0
rfemur 0 0 0
rtibia 0 0 0
rfoot 12.0664 9.2366 0.00459583
rtoes -26.1646 0 0
lowerback 0 0 0
upperback 2.52088 -1.27542 3.15053
thorax 0 0 0
lowerneck 0 0 0
upperneck 11.0288 -18.5061 5.95
head 5.05515 -8.89095 1.2618
lclavicle 0 0 0
lhumerus -34.7396 -20.5499 91.6764
lradius 0 0 0
lwrist 23.2447 0 0
lhand 0 0 0
lfingers 0 0 0
lthumb 0 0 0
rclavicle 0 0 0
rhumerus 25.4176 16.9392 -73.9974
rradius 0 0 0
rwrist -44.0793 0 0
rhand 0 0 0
rfingers 0 0 0
rthumb 0.419759 -50.1577 0.00587594
580
root 6.87981 16.2935 -3.45137 0 0 0
lfemur -18.2959 4.81262 -18.4865
ltibia 48.1885 -0 0
lfoot -33.3866 8.22581 0.107754
ltoes -0.0542364 0 0
rfemur 0 0 0
rtibia 0 0 0
rfoot 12.0032 9.09581 0.0042867
rtoes -24.9815 0 0
lowerback 0 0 0
upperback 2.45555 -1.32324 3.03706
thorax 0 0 0
lowerneck 0 0 0
upperneck 11.2083 -18.4513 5.98703
head 5.12382 -8.85287 1.25775
lclavicle 0 0 0
lhumerus -33.5004 -21.4227 90.7609
lradius 0 0 0
lwrist 23.4447 0 0
lhand 0 0 0
lfingers 0 0 0
lthumb 0 0 0
rclavicle 0 0 0
rhumerus 25.4428 16.8901 -73.8295
rradius 0 0 0
rwrist -44.0952 0 0
rhand 0 0 0
rfingers 0 0 0
rthumb 0.492133 -50.0005 0.0054807
581
root 6.81776 16.3036 -3.4409 0 0 0
lfemur -18.0503 4.96959 -18.5577
ltibia 47.5396 -0 0
lfoot -33.1087 8.96699 0.0966196
ltoes 0.319771 -0 0
rfemur 0 0 0
rtibia 0 0 0
rfoot 11.9425 8.96073 0.00384411
rtoes -23.8465 0 0
lowerback 0 0 0
upperback 2.39295 -1.36923 2.92824
thorax 0 0 0
lowerneck 0 0 0
upperneck 11.3806 -18.3988 6.02271
head 5.18969 -8.81634 1.2539
lclavicle 0 0 0
lhumerus -32.2905 -22.2422 89.8584
lradius 0 0 0
lwrist 23.6366 0 0
lhand 0 0 0
lfingers 0 0 0
lthumb 0 0 0
rclavicle 0 0 0
rhumerus 25.4669 16.8429 -73.6684
rradius 0 0 0
rwrist -44.1104 0 0
rhand 0 0 0
rfingers 0 0 0
rthumb 0.561566 -49.8496 0.00491483
582
root 6.75644 16.3129 -3.43133 0 0 0
lfemur -17.819 5.11771 -18.6241
ltibia 46.9284 -0 0
lfoot -32.8471 9.66498 0.0828467
ltoes 0.672011 -0 0
rfemur 0 0 0
rtibia 0 0 0
rfoot 11.8854 8.83351 0.00329653
rtoes -22.7775 0 0
lowerback 0 0 0
upperback 2.33408 -1.41265 2.82581
thorax 0 0 0
lowerneck 0 0 0
upperneck 11.5427 -18.3495 6.05645
head 5.25172 -8.78193 1.25032
lclavicle 0 0 0
lhumerus -31.1318 -22.9976 88.9865
lradius 0 0 0
lwrist 23.8173 0 0
lhand 0 0 0
lfingers 0 0 0
lthumb 0 0 0
rclavicle 0 0 0
rhumerus 25.4894 16.7984 -73.5168
rradius 0 0 0
rwrist -44.1247 0 0
rhand 0 0 0
rfingers 0 0 0
rthumb 0.626957 -49.7075 0.00421472
583
root 6.69616 16.3217 -3.42291 0 0 0
lfemur -17.6061 5.25441 -18.6848
ltibia 46.3653 -0 0
lfoot -32.6063 10.308 0.0673375
ltoes 0.996547 -0 0
rfemur 0 0 0
rtibia 0 0 0
rfoot 11.8328 8.71631 0.00267976
rtoes -21.7925 0 0
lowerback 0 0 0
upperback 2.27991 -1.45276 2.73147
thorax 0 0 0
lowerneck 0 0 0
upperneck 11.6921 -18.3041 6.08766
head 5.30886 -8.75022 1.24706
lclavicle 0 0 0
lhumerus -30.0475 -23.679 88.1642
lradius 0 0 0
lwrist 23.9838 0 0
lhand 0 0 0
lfingers 0 0 0
lthumb 0 0 0
rclavicle 0 0 0
rhumerus 25.5101 16.7574 -73.3772
rradius 0 0 0
rwrist -44.1378 0 0
rhand 0 0 0
rfingers 0 0 0
rthumb 0.687202 -49.5766 0.00342616
